<svg width="32" height="32" viewBox="0 0 32 32" fill="none" xmlns="http://www.w3.org/2000/svg">
<rect width="32" height="32" rx="16" fill="white"/>
<path d="M17.0249 15.9999C17.0249 18.5092 15.0046 20.5434 12.5124 20.5434C10.0203 20.5434 8 18.5092 8 15.9999C8 13.4907 10.0203 11.4565 12.5124 11.4565C15.0046 11.4565 17.0249 13.4907 17.0249 15.9999Z" fill="#202020"/>
<path d="M21.9751 16C21.9751 18.362 20.9649 20.2768 19.7189 20.2768C18.4728 20.2768 17.4626 18.362 17.4626 16C17.4626 13.6379 18.4728 11.7231 19.7189 11.7231C20.965 11.7231 21.9751 13.6379 21.9751 16Z" fill="#202020"/>
<path d="M24.0001 16.0001C24.0001 18.1163 23.6448 19.8319 23.2066 19.8319C22.7683 19.8319 22.4131 18.1163 22.4131 16.0001C22.4131 13.8838 22.7683 12.1682 23.2066 12.1682C23.6448 12.1682 24.0001 13.8838 24.0001 16.0001Z" fill="#202020"/>
</svg>
