<svg width="32" height="32" viewBox="0 0 32 32" fill="none" xmlns="http://www.w3.org/2000/svg">
<rect width="32" height="32" rx="16" fill="white"/>
<path d="M22.4002 22.4002V17.7122C22.4002 15.4082 21.9042 13.6482 19.2162 13.6482C17.9202 13.6482 17.0562 14.3522 16.7042 15.0242H16.6722V13.8562H14.1282V22.4002H16.7842V18.1602C16.7842 17.0402 16.9922 15.9682 18.3682 15.9682C19.7282 15.9682 19.7442 17.2322 19.7442 18.2242V22.3842H22.4002V22.4002Z" fill="#202020"/>
<path d="M9.80811 13.8562H12.4641V22.4002H9.80811V13.8562Z" fill="#202020"/>
<path d="M11.1361 9.6001C10.2881 9.6001 9.6001 10.2881 9.6001 11.1361C9.6001 11.9841 10.2881 12.6881 11.1361 12.6881C11.9841 12.6881 12.6721 11.9841 12.6721 11.1361C12.6721 10.2881 11.9841 9.6001 11.1361 9.6001Z" fill="#202020"/>
</svg>
