<svg width="32" height="32" viewBox="0 0 32 32" fill="none" xmlns="http://www.w3.org/2000/svg">
<rect width="32" height="32" rx="16" fill="white"/>
<g clip-path="url(#clip0_466_98)">
<path d="M22.9273 11.9843C22.2119 10.7587 21.2415 9.78829 20.0159 9.07292C18.79 8.35759 17.4518 8 16.0002 8C14.5488 8 13.2102 8.35759 11.9846 9.07292C10.7588 9.78818 9.78844 10.7586 9.07303 11.9843C8.35759 13.2101 8 14.5487 8 16C8 17.4514 8.3577 18.7898 9.07292 20.0157C9.78829 21.2413 10.7587 22.2117 11.9844 22.9271C13.2102 23.6424 14.5487 24 16.0001 24C17.4515 24 18.7901 23.6424 20.0158 22.9271C21.2415 22.2119 22.2119 21.2413 22.9272 20.0157C23.6424 18.7899 24 17.4513 24 16C24 14.5486 23.6424 13.2099 22.9273 11.9843ZM16.0001 9.16669C17.7223 9.16669 19.2258 9.73612 20.5105 10.8749L20.3803 11.0571C20.3282 11.1301 20.198 11.2706 19.9897 11.4791C19.7814 11.6873 19.554 11.8854 19.3075 12.0728C19.0608 12.2603 18.7259 12.4739 18.3021 12.7135C17.8785 12.9531 17.4271 13.1633 16.9479 13.3438C16.1494 11.8714 15.2953 10.545 14.3855 9.36455C14.9342 9.23262 15.4724 9.16669 16.0001 9.16669ZM10.6461 11.7602C11.3127 10.9201 12.1251 10.2741 13.0835 9.8228C13.9446 10.9686 14.7917 12.2812 15.6251 13.7603C13.514 14.3159 11.4099 14.5937 9.31267 14.5936C9.53501 13.545 9.97944 12.6005 10.6461 11.7602ZM9.62505 18.4638C9.31945 17.6825 9.16669 16.8612 9.16669 16C9.16669 15.9027 9.17027 15.8298 9.17712 15.7813C11.6911 15.7813 14.028 15.4584 16.1877 14.8125C16.41 15.243 16.594 15.6284 16.7399 15.9688C16.7117 15.9827 16.6669 15.9982 16.6044 16.0156C16.5417 16.033 16.4967 16.045 16.4686 16.052L16.0833 16.1874C15.8193 16.2847 15.4737 16.4514 15.0468 16.6874C14.6198 16.9238 14.1667 17.2048 13.6875 17.5313C13.2083 17.8578 12.7135 18.2901 12.2031 18.8285C11.6927 19.3666 11.2639 19.9446 10.9166 20.5626C10.3611 19.9446 9.93058 19.2448 9.62505 18.4638ZM16.0001 22.8335C14.3751 22.8335 12.9237 22.3126 11.6459 21.271L11.8021 21.3856C12.0452 20.8507 12.4028 20.3368 12.8751 19.8439C13.3474 19.3509 13.8022 18.9531 14.2397 18.651C14.6772 18.3491 15.1528 18.0644 15.6668 17.7967C16.1807 17.5295 16.5312 17.3592 16.7189 17.2865C16.9064 17.2136 17.0557 17.1562 17.1668 17.1145L17.1875 17.104H17.2085C17.8889 18.8887 18.3752 20.618 18.6668 22.2916C17.8056 22.6529 16.9169 22.8333 16.0001 22.8335ZM21.7504 19.6928C21.2365 20.488 20.594 21.1461 19.8234 21.6668C19.5384 20.0696 19.0942 18.4409 18.4899 16.7813C19.8718 16.5658 21.292 16.6667 22.7503 17.0832C22.5975 18.0277 22.2641 18.8977 21.7504 19.6928ZM22.7293 15.9063C22.6599 15.8925 22.573 15.8767 22.4689 15.8595C22.3647 15.8422 22.2379 15.8213 22.0885 15.797C21.9394 15.7727 21.7725 15.7502 21.5886 15.7293C21.4045 15.7085 21.2084 15.6894 20.9999 15.6721C20.7916 15.6546 20.5694 15.6409 20.3334 15.6303C20.097 15.62 19.8575 15.6147 19.6144 15.6147C19.3716 15.6147 19.1162 15.6218 18.8489 15.6356C18.5816 15.6492 18.323 15.6738 18.0731 15.7085C18.0521 15.6737 18.0261 15.6164 17.9949 15.5365C17.9637 15.4567 17.9409 15.3959 17.9275 15.3542C17.7954 15.0625 17.6425 14.7326 17.4687 14.3647C17.9479 14.1701 18.4047 13.9462 18.8389 13.6927C19.2728 13.4392 19.6198 13.2136 19.8804 13.0157C20.1408 12.8176 20.3873 12.6075 20.6199 12.3853C20.8527 12.1632 21.0035 12.0087 21.0732 11.9219C21.1427 11.8349 21.2087 11.7499 21.2711 11.6667L21.2816 11.6562C22.2954 12.8923 22.813 14.3158 22.8336 15.9271L22.7293 15.9063Z" fill="#202020"/>
</g>
<defs>
<clipPath id="clip0_466_98">
<rect width="16" height="16" fill="white" transform="translate(8 8)"/>
</clipPath>
</defs>
</svg>
