<svg width="32" height="32" viewBox="0 0 32 32" fill="none" xmlns="http://www.w3.org/2000/svg">
<rect width="32" height="32" rx="16" fill="white"/>
<path d="M16.1338 17.6057V17.0564C16.1338 16.1762 15.4225 15.4719 14.5493 15.4719L14.8943 15.2325C15.4577 14.8522 15.7957 14.2113 15.7957 13.5353C15.7957 12.986 15.5775 12.493 15.2183 12.1409C14.8661 11.7818 14.3732 11.5635 13.8239 11.5635H9V20.2254H13.5141C14.9577 20.2254 16.1338 19.0494 16.1338 17.6057ZM10.838 13.0001H13.0704C13.6197 13.0001 14.0634 13.4438 14.0634 13.993C14.0634 14.5423 13.6197 14.986 13.0704 14.986H10.838V13.0001ZM10.838 18.8381V16.3522H13.162C13.8521 16.3522 14.4085 16.9085 14.4085 17.5917C14.4085 18.2818 13.8521 18.8381 13.162 18.8381H10.838Z" fill="#202020"/>
<path d="M19.8098 13.7537C18.0492 13.7537 16.6196 15.2466 16.6196 17.0917C16.6196 18.9367 18.0492 20.4368 19.8098 20.4368C21.183 20.4368 22.359 19.5213 22.8027 18.2396H21.2604C20.8872 19.1692 19.8098 19.0142 19.8098 19.0142C18.3168 18.9016 18.3731 17.472 18.3731 17.472H22.9788C22.9929 17.3452 22.9999 17.2184 22.9999 17.0917C22.9999 15.2466 21.5703 13.7537 19.8098 13.7537ZM18.507 16.3523C18.507 15.5987 19.1196 14.9861 19.8731 14.9861C20.6337 14.9861 21.2464 15.5987 21.2464 16.3523H18.507Z" fill="#202020"/>
<path d="M18.075 12.1501H21.659V12.9991H18.075V12.1501Z" fill="#202020"/>
</svg>
