<svg width="307" height="154" viewBox="0 0 307 154" fill="none" xmlns="http://www.w3.org/2000/svg">
<path d="M45.9526 24.6684C46.1644 24.2943 46.5016 24.0432 46.9642 23.915C47.3497 23.8083 47.7664 23.7841 48.2142 23.8427L57.7569 25.6571L63.2385 24.1386L63.7703 26.0583L58.7975 27.4358L48.8614 35.169L48.3168 33.203L57.5242 25.8958L48.2911 24.1202C47.8587 24.0574 47.4343 24.0837 47.0179 24.199C46.6016 24.3143 46.3099 24.5197 46.1426 24.815L45.9526 24.6684Z" fill="#FAC660"/>
<path d="M61.2286 13.2006C61.4419 14.867 61.1395 16.2849 60.3213 17.4542C59.5032 18.6236 58.1022 19.3352 56.1184 19.5891C54.1346 19.8431 52.5261 19.5005 51.2929 18.5615C50.0576 17.6066 49.3333 16.296 49.12 14.6296C48.9047 12.9473 49.2061 11.5215 50.0242 10.3521C50.8424 9.1828 52.2434 8.47116 54.2272 8.21722C56.211 7.96329 57.8205 8.31376 59.0558 9.26865C60.289 10.2077 61.0133 11.5183 61.2286 13.2006ZM49.3044 14.5576C49.4588 15.7637 50.1264 16.6945 51.3071 17.3499C52.472 18.0073 54.0146 18.2131 55.935 17.9673C57.8394 17.7235 59.2052 17.1777 60.0322 16.3298C60.8593 15.482 61.1956 14.4549 61.0412 13.2488C60.8868 12.0426 60.2272 11.1108 59.0623 10.4534C57.8815 9.79804 56.3389 9.59224 54.4344 9.83602C52.5141 10.0818 51.1404 10.6287 50.3134 11.4765C49.4863 12.3244 49.15 13.3514 49.3044 14.5576Z" fill="#FAC660"/>
<path d="M57.537 2.45452C58.8008 2.47748 59.6147 2.15622 59.9789 1.49072C60.1447 1.17368 60.2321 0.767202 60.2411 0.271284C60.2594 -0.736549 59.8917 -1.63938 59.1381 -2.4372C58.3848 -3.25102 57.6807 -3.69588 57.026 -3.77179L48.4114 -3.9283L48.4419 -5.60802L58.7362 -5.42099C59.2002 -5.41256 59.5617 -5.49401 59.8209 -5.66533C60.0643 -5.85294 60.1958 -6.04258 60.2153 -6.23426L60.268 -6.49734L60.2816 -7.24122L60.4735 -7.23773L60.4469 -5.77397C60.435 -5.11808 60.2819 -4.61678 59.9875 -4.27007C59.6935 -3.93936 59.4023 -3.76862 59.1141 -3.75785L58.7057 -3.74127L57.6739 -3.76002C58.3565 -3.45957 58.9951 -2.93588 59.5897 -2.18895C60.1682 -1.44232 60.4495 -0.629079 60.4335 0.250776C60.4178 1.11463 60.3249 1.82506 60.1547 2.38206C59.9689 2.92278 59.7218 3.31035 59.4135 3.54479C58.91 3.95171 58.2663 4.14805 57.4825 4.13381L48.268 3.9664L48.2985 2.28667L57.537 2.45452Z" fill="#FAC660"/>
<path d="M248.681 -2.23644C247.417 -2.25941 246.604 -1.93814 246.239 -1.27264C246.074 -0.955603 245.986 -0.549124 245.977 -0.0532055C245.959 0.954628 246.327 1.85746 247.08 2.65528C247.833 3.4691 248.538 3.91396 249.192 3.98987L257.807 4.14638L257.776 5.8261L247.482 5.63907C247.018 5.63064 246.657 5.71209 246.397 5.88341C246.154 6.07102 246.022 6.26066 246.003 6.45234L245.95 6.71542L245.937 7.4593L245.745 7.45581L245.771 5.99205C245.783 5.33616 245.936 4.83486 246.231 4.48815C246.525 4.15744 246.816 3.9867 247.104 3.97593L247.513 3.95935L248.544 3.97809C247.862 3.67764 247.223 3.15396 246.629 2.40703C246.05 1.6604 245.769 0.847157 245.785 -0.0326972C245.8 -0.896555 245.893 -1.60698 246.064 -2.16399C246.249 -2.7047 246.496 -3.09227 246.805 -3.32671C247.308 -3.73363 247.952 -3.92997 248.736 -3.91573L257.95 -3.74832L257.92 -2.0686L248.681 -2.23644Z" fill="#FAC660"/>
<path d="M255.619 15.1328L256.118 15.2022C255.932 14.4494 255.444 13.7192 254.654 13.0115C253.88 12.3061 253.115 11.8846 252.359 11.7471L245.156 10.7449L245.388 9.08095L257.273 10.7347L257.042 12.3987L253.262 11.8728C254.146 12.2542 254.942 12.8578 255.651 13.6833C256.376 14.5111 256.692 15.3789 256.598 16.2866L256.584 16.3817C256.54 16.6986 256.393 16.9447 256.142 17.1198C255.906 17.313 255.629 17.3876 255.312 17.3435C254.995 17.2994 254.749 17.152 254.574 16.9015C254.396 16.6668 254.33 16.391 254.374 16.0741C254.418 15.7571 254.557 15.51 254.792 15.3326C255.027 15.1553 255.302 15.0887 255.619 15.1328Z" fill="#FAC660"/>
<path d="M254.405 38.4245C255.402 37.2243 256.107 36.0102 256.522 34.7823C256.931 33.5696 256.994 32.5352 256.709 31.679C256.424 30.8227 255.826 30.2411 254.917 29.9339C253.81 29.5601 252.759 29.8469 251.764 30.7942C251.332 31.2226 250.9 31.7015 250.468 32.2311C250.046 32.7809 249.593 33.3205 249.111 33.8499C248.628 34.3792 248.125 34.8427 247.602 35.2404C247.08 35.638 246.454 35.8911 245.725 35.9995C245.011 36.113 244.176 36.0085 243.221 35.686C242.282 35.3686 241.568 34.832 241.08 34.0761C240.592 33.3203 240.355 32.5225 240.368 31.6826C240.392 30.8631 240.573 29.953 240.91 28.9525C241.54 27.088 242.54 25.6525 243.91 24.646L244.054 24.8211C243.491 25.1882 242.947 25.7224 242.423 26.4236C241.909 27.1451 241.512 27.9227 241.23 28.7565C240.815 29.9843 240.743 31.125 241.012 32.1785C241.291 33.2523 241.984 33.976 243.09 34.3497C244.303 34.7593 245.445 34.5032 246.516 33.5816C246.993 33.1686 247.466 32.6948 247.933 32.1603C248.396 31.641 248.868 31.1167 249.351 30.5873C249.849 30.0631 250.359 29.6021 250.882 29.2045C252.029 28.3084 253.3 28.0959 254.695 28.5669C255.801 28.9406 256.57 29.6141 257.001 30.5872C257.448 31.5655 257.42 32.7974 256.918 34.283C256.412 35.7837 255.639 37.2201 254.602 38.5923L254.405 38.4245Z" fill="#FAC660"/>
<path d="M249.072 40.7171L249.245 40.7992L249.03 41.2549L251.2 42.2803L250.482 43.7992L248.312 42.7738L246.743 46.0938L246.57 46.0117L248.138 42.6918L240.24 38.9593C239.3 38.5149 238.572 38.2949 238.057 38.2992C237.535 38.3179 237.116 38.66 236.802 39.3254C236.481 40.0053 236.293 40.7574 236.24 41.5817L236.036 41.5648C236.103 40.7116 236.358 39.8148 236.803 38.8745C237.24 37.9487 237.756 37.3432 238.351 37.058C238.961 36.7797 239.837 36.9105 240.979 37.4506L248.856 41.1728L249.072 40.7171Z" fill="#FAC660"/>
<path d="M235.961 46.6331C234.889 45.963 234.026 45.8196 233.371 46.2028C233.066 46.3893 232.781 46.6928 232.518 47.1134C231.984 47.9681 231.835 48.9314 232.07 50.0033C232.297 51.0887 232.672 51.8325 233.194 52.2345L240.5 56.8023L239.609 58.2267L230.879 52.7684C230.486 52.5224 230.134 52.4062 229.823 52.4197C229.518 52.4552 229.308 52.5502 229.193 52.7045L229.012 52.9029L228.617 53.5337L228.455 53.432L229.231 52.1906C229.579 51.6344 229.968 51.2834 230.399 51.1376C230.821 51.0054 231.158 51.0088 231.411 51.1479L231.77 51.3439L232.645 51.891C232.214 51.2821 231.936 50.5044 231.811 49.558C231.699 48.6201 231.876 47.7781 232.343 47.0319C232.801 46.2993 233.246 45.738 233.679 45.348C234.116 44.9801 234.528 44.7749 234.913 44.7326C235.554 44.6428 236.207 44.8057 236.872 45.2214L244.686 50.1072L243.795 51.5317L235.961 46.6331Z" fill="#FAC660"/>
<path d="M221.224 62.0165C221.645 61.5133 222.078 61.2192 222.525 61.134C222.962 61.0611 223.296 61.1109 223.527 61.2835L223.855 61.5269L229.635 66.3626C230.604 67.1737 231.434 67.4407 232.125 67.1634C232.464 67.0084 232.792 66.7407 233.11 66.3602C233.767 65.5749 234.045 64.6075 233.943 63.458C233.853 62.3188 233.562 61.5439 233.071 61.1332L226.537 55.666L227.615 54.3775L236.818 62.0778L235.74 63.3663L233.642 61.6106C233.995 62.2607 234.163 63.0579 234.144 64.0023C234.138 64.9569 233.853 65.7717 233.288 66.4466C232.724 67.1216 232.199 67.6112 231.715 67.9155C231.233 68.2423 230.793 68.4063 230.396 68.4076C229.759 68.3961 229.14 68.1388 228.538 67.6357L222.777 62.8154C222.421 62.5176 222.089 62.3541 221.779 62.3248C221.472 62.3181 221.251 62.3832 221.115 62.5202L220.909 62.6919L220.431 63.2625L220.284 63.1393L221.224 62.0165Z" fill="#FAC660"/>
<path d="M211.478 71.0548C211.966 70.6167 212.437 70.3872 212.892 70.3665C213.334 70.3564 213.657 70.4532 213.862 70.6568L214.152 70.9445L219.185 76.5532C220.03 77.4939 220.813 77.8762 221.537 77.7C221.894 77.5947 222.257 77.3764 222.626 77.0451C223.388 76.3612 223.8 75.4431 223.862 74.2908C223.935 73.1504 223.758 72.342 223.331 71.8657L217.64 65.5246L218.891 64.4026L226.905 73.3336L225.655 74.4557L223.828 72.4194C224.085 73.1131 224.137 73.9261 223.985 74.8582C223.843 75.8023 223.445 76.5682 222.79 77.156C222.135 77.7437 221.546 78.1538 221.024 78.3861C220.5 78.6411 220.041 78.7409 219.648 78.6856C219.019 78.5836 218.443 78.2409 217.919 77.6574L212.902 72.0665C212.592 71.7212 212.286 71.512 211.984 71.4391C211.681 71.3887 211.452 71.4217 211.299 71.538L211.07 71.6786L210.516 72.1755L210.388 72.0326L211.478 71.0548Z" fill="#FAC660"/>
<path d="M207.866 73.6397C208.397 73.2545 208.889 73.0751 209.343 73.1016C209.784 73.1374 210.096 73.2672 210.278 73.491L210.537 73.8071L216.582 82.1414L215.222 83.1279L209.177 74.7936C208.904 74.418 208.622 74.1782 208.329 74.0743C208.033 73.9928 207.809 73.9972 207.657 74.0876L207.395 74.2179L206.793 74.6547L206.681 74.4993L207.866 73.6397ZM218.044 84.4019C218.312 84.4445 218.531 84.5824 218.7 84.8156C218.869 85.0487 218.932 85.2993 218.889 85.5675C218.856 85.8486 218.723 86.0737 218.49 86.2428C218.257 86.4119 218.001 86.4686 217.724 86.413C217.443 86.3797 217.218 86.2465 217.049 86.0134C216.879 85.7802 216.823 85.5249 216.878 85.2474C216.921 84.9792 217.059 84.7606 217.292 84.5915C217.525 84.4224 217.776 84.3592 218.044 84.4019Z" fill="#FAC660"/>
<path d="M195.247 81.487C195.816 81.1606 196.325 81.0348 196.773 81.1094C197.208 81.1921 197.504 81.3544 197.661 81.5962L197.885 81.9382L201.635 88.4752C202.263 89.5717 202.95 90.1094 203.694 90.0883C204.065 90.0599 204.466 89.9224 204.896 89.6756C205.784 89.1661 206.379 88.3545 206.681 87.2406C206.991 86.1407 206.987 85.3131 206.668 84.758L202.429 77.3674L203.887 76.5315L209.857 86.9408L208.4 87.7767L207.038 85.4033C207.145 86.1355 207.026 86.9414 206.682 87.8211C206.346 88.7147 205.797 89.3804 205.033 89.8183C204.27 90.2561 203.608 90.534 203.049 90.652C202.484 90.7918 202.014 90.7936 201.641 90.6572C201.047 90.426 200.555 89.9704 200.165 89.2903L196.428 82.7741C196.197 82.3716 195.941 82.1031 195.661 81.9686C195.375 81.8559 195.145 81.8404 194.971 81.9221L194.718 82.0118L194.072 82.3819L193.977 82.2154L195.247 81.487Z" fill="#FAC660"/>
<path d="M195.611 87.5161C196.393 89.4437 196.53 91.1232 196.023 92.5547C195.516 93.9863 194.328 95.0808 192.46 95.8384C191.081 96.3976 189.58 96.7212 187.959 96.8091L183.602 86.0667C182.186 82.5318 183.013 80.1421 186.082 78.8975C187.772 78.212 189.44 78.1744 191.086 78.7846L190.985 78.9811C189.277 78.4307 187.666 78.4621 186.154 79.0754C184.108 79.9051 183.776 82.0251 185.159 85.4354L186.052 87.6373C186.123 87.0041 186.404 86.355 186.894 85.6901C187.384 85.0252 188.074 84.5124 188.964 84.1516C192.018 82.9992 194.234 84.1207 195.611 87.5161ZM189.014 84.3386C188.02 84.7414 187.276 85.3541 186.781 86.1764C186.285 86.9988 186.121 87.6785 186.287 88.2155L189.47 96.0666C190.718 96.0785 191.713 95.9341 192.454 95.6335C193.774 95.0983 194.557 94.1765 194.803 92.868C195.056 91.5744 194.806 90.0009 194.054 88.1475C192.695 84.7965 191.015 83.5269 189.014 84.3386Z" fill="#FAC660"/>
<path d="M166.693 90.1754C169.644 89.6766 171.97 90.1434 173.673 91.5756C174.279 92.0898 174.824 92.8172 175.307 93.7577C175.791 94.6983 176.152 95.8785 176.392 97.2983C176.632 98.7182 176.618 100.027 176.35 101.224C176.069 102.44 175.578 103.424 174.877 104.175C173.51 105.591 171.722 106.485 169.514 106.859C168.883 106.965 168.258 107.014 167.64 107.005C167.024 107.012 166.558 106.985 166.239 106.925L165.785 106.832L165.816 106.583C166.961 106.828 168.18 106.841 169.474 106.622C171.146 106.339 172.45 105.559 173.386 104.281C174.102 103.333 174.502 102.048 174.585 100.427C174.64 99.5093 174.56 98.4113 174.344 97.1334C174.128 95.8556 173.747 94.703 173.2 93.6758C172.656 92.6644 172.111 91.937 171.565 91.4937C171.004 91.0531 170.365 90.7311 169.65 90.5276C168.936 90.3398 168.378 90.2556 167.976 90.275C167.574 90.2943 167.096 90.3507 166.544 90.444C165.976 90.54 165.347 90.7032 164.655 90.9337C163.964 91.1641 163.445 91.3574 163.098 91.5134L162.582 91.771L162.471 91.5464C163.598 90.9177 165.005 90.4607 166.693 90.1754Z" fill="#FAC660"/>
<path d="M155.932 91.0094C157.612 90.985 158.987 91.4451 160.057 92.3896C161.127 93.3342 161.676 94.8064 161.705 96.8062C161.734 98.8059 161.213 100.366 160.141 101.485C159.053 102.605 157.669 103.177 155.989 103.202C154.294 103.227 152.911 102.767 151.841 101.822C150.771 100.877 150.222 99.4053 150.193 97.4055C150.164 95.4057 150.693 93.8459 151.781 92.726C152.853 91.6063 154.236 91.0341 155.932 91.0094ZM155.939 103.011C157.155 102.993 158.155 102.434 158.939 101.335C159.723 100.251 160.101 98.7417 160.073 96.8059C160.045 94.8861 159.656 93.4676 158.907 92.5504C158.158 91.6332 157.175 91.1834 155.959 91.2011C154.743 91.2187 153.743 91.7693 152.959 92.8528C152.175 93.9524 151.797 95.462 151.824 97.3818C151.853 99.3176 152.241 100.744 152.991 101.661C153.74 102.579 154.723 103.028 155.939 103.011Z" fill="#FAC660"/>
<path d="M144.114 103.802L144.22 102.679L142.333 102.5L142.351 102.309L144.238 102.488L145.353 90.7323L147.025 90.8909L145.911 102.646L146.413 102.694L146.394 102.885L145.893 102.837L145.786 103.96C145.622 105.696 145.13 106.895 144.312 107.557C143.493 108.235 142.246 108.502 140.572 108.36L140.59 108.169C141.69 108.257 142.514 107.957 143.062 107.27C143.607 106.598 143.958 105.442 144.114 103.802Z" fill="#FAC660"/>
<path d="M136.905 102.882L137.089 101.769L135.218 101.46L135.249 101.27L137.12 101.58L139.045 89.9296L140.703 90.2036L138.777 101.853L139.275 101.936L139.243 102.125L138.746 102.043L138.562 103.156C138.278 104.876 137.704 106.039 136.843 106.642C135.978 107.261 134.716 107.442 133.055 107.184L133.087 106.994C134.179 107.159 135.021 106.917 135.615 106.269C136.206 105.637 136.636 104.508 136.905 102.882Z" fill="#FAC660"/>
<path d="M132.42 94.7053C132.936 92.7894 132.982 91.294 132.559 90.2191C132.12 89.1401 131.352 88.453 130.255 88.1578C128.71 87.742 127.273 87.6038 125.943 87.743L125.917 87.562C127.282 87.4157 128.745 87.5525 130.305 87.9724C131.85 88.3881 132.985 89.1905 133.709 90.3794C134.432 91.5684 134.535 93.1285 134.015 95.0598C133.495 96.9911 132.582 98.3526 131.275 99.1443C129.969 99.936 128.528 100.12 126.952 99.6957C125.685 99.3548 124.721 98.6894 124.059 97.6995C123.398 96.7096 123.266 95.473 123.665 93.9898C123.686 93.9125 123.707 93.8353 123.728 93.758L132.001 95.9844C132.16 95.5797 132.3 95.1533 132.42 94.7053ZM125.254 94.3675C124.87 95.8549 124.861 97.0288 125.226 97.8892C125.591 98.7496 126.214 99.2983 127.094 99.5352C127.975 99.7722 128.867 99.598 129.77 99.0126C130.658 98.423 131.377 97.4733 131.928 96.1636L125.254 94.3675Z" fill="#FAC660"/>
<path d="M119.686 90.9235C120.452 89.0934 120.697 87.6175 120.421 86.4958C120.13 85.3679 119.46 84.5847 118.412 84.146C116.936 83.5281 115.53 83.1996 114.194 83.1605L114.192 82.9777C115.564 83.0144 116.996 83.3448 118.486 83.9689C119.962 84.5867 120.98 85.533 121.539 86.8078C122.098 88.0826 121.991 89.6424 121.219 91.4873C120.447 93.3322 119.36 94.5599 117.96 95.1705C116.56 95.781 115.107 95.7712 113.601 95.141C112.391 94.6344 111.524 93.8465 111 92.7773C110.476 91.7081 110.511 90.4651 111.104 89.0482C111.135 88.9744 111.166 88.9006 111.197 88.8268L119.1 92.1354C119.311 91.7555 119.507 91.3515 119.686 90.9235ZM112.628 89.6342C112.05 91.0572 111.884 92.2194 112.131 93.1207C112.378 94.022 112.923 94.6488 113.764 95.001C114.605 95.3532 115.512 95.2993 116.485 94.8394C117.444 94.3733 118.283 93.5279 119.004 92.3033L112.628 89.6342Z" fill="#FAC660"/>
<rect x="81.7825" y="65.254" width="8" height="8" rx="4" transform="rotate(45 81.7825 65.254)" fill="#FAC660"/>
<rect x="153.2" y="-20.306" width="28" height="28" rx="14" transform="rotate(45 153.2 -20.306)" stroke="#FAC660" stroke-width="4"/>
<rect x="153.2" y="-59.9039" width="84" height="84" rx="42" transform="rotate(45 153.2 -59.9039)" stroke="#FAC660" stroke-width="4"/>
</svg>
