<svg width="40" height="40" viewBox="0 0 40 40" fill="none" xmlns="http://www.w3.org/2000/svg">
<path d="M33.3499 4.83374H10.2187C9.88715 4.83374 9.56921 4.96544 9.33479 5.19986C9.10037 5.43428 8.96867 5.75222 8.96867 6.08374C8.96867 6.41526 9.10037 6.7332 9.33479 6.96762C9.56921 7.20204 9.88715 7.33374 10.2187 7.33374H30.8987L5.24992 32.9837C5.12593 33.0979 5.0263 33.2359 4.95701 33.3895C4.88771 33.5431 4.85019 33.7091 4.8467 33.8776C4.84321 34.0461 4.87382 34.2135 4.93669 34.3698C4.99956 34.5262 5.0934 34.6682 5.21255 34.7874C5.33171 34.9065 5.47373 35.0003 5.63007 35.0632C5.78641 35.1261 5.95385 35.1567 6.12233 35.1532C6.2908 35.1497 6.45683 35.1122 6.61044 35.0429C6.76404 34.9736 6.90205 34.874 7.01617 34.75L32.6662 9.09999V29.7812C32.6662 30.1128 32.7979 30.4307 33.0323 30.6651C33.2667 30.8995 33.5846 31.0312 33.9162 31.0312C34.2477 31.0312 34.5656 30.8995 34.8001 30.6651C35.0345 30.4307 35.1662 30.1128 35.1662 29.7812V6.65124C35.1655 6.16963 34.974 5.70791 34.6335 5.36724C34.2931 5.02658 33.8315 4.83473 33.3499 4.83374Z" fill="#202020"/>
</svg>
